<?xml version="1.0" encoding="UTF-8"?>
<svg id="Livello_2" data-name="Livello 2" xmlns="http://www.w3.org/2000/svg" viewBox="0 0 34.5 36.21">
  <defs>
    <style>
      .cls-1 {
        fill: #f5f5f5;
      }

      .cls-2 {
        fill: #a2a2a2;
      }
    </style>
  </defs>
  <g id="Livello_1-2" data-name="Livello 1">
    <g>
      <path class="cls-2" d="M33.8,7.67c.24.07.61.55.69.83.26.83-2.7,16.45-3.41,16.95H8.01S4.97,4,4.97,4C4.38,2.1-.3,4.58.01,1.42.2-.45,6.41-.1,7.08.39c1.05.76.34,6.3,1.72,7.28h25ZM31.05,10.67H8.55l1.97,11.78,18.53.21,2-12Z"/>
      <path class="cls-2" d="M9.41,27.27c6.11-1.35,7.71,7.61,2.28,8.81-6.11,1.35-7.71-7.61-2.28-8.81ZM9.85,30.22c-1.92.61-.45,4.26,1.73,2.73,1.23-.86.44-3.42-1.73-2.73Z"/>
      <path class="cls-2" d="M27.41,27.27c6.11-1.35,7.71,7.61,2.28,8.81-6.11,1.35-7.71-7.61-2.28-8.81ZM27.85,30.22c-1.92.61-.45,4.26,1.73,2.73,1.23-.86.44-3.42-1.73-2.73Z"/>
      <path class="cls-1" d="M9.85,30.22c2.16-.69,2.95,1.87,1.73,2.73-2.17,1.52-3.65-2.12-1.73-2.73Z"/>
      <path class="cls-1" d="M27.85,30.22c2.16-.69,2.95,1.87,1.73,2.73-2.17,1.52-3.65-2.12-1.73-2.73Z"/>
    </g>
  </g>
</svg>