<?xml version="1.0" encoding="UTF-8"?>
<svg id="Livello_2" data-name="Livello 2" xmlns="http://www.w3.org/2000/svg" viewBox="0 0 62.5 62">
  <defs>
    <style>
      .cls-1 {
        fill: #5d5d5d;
      }

      .cls-2 {
        fill: #fff;
      }
    </style>
  </defs>
  <g id="Livello_1-2" data-name="Livello 1">
    <g>
      <rect class="cls-2" width="62.5" height="62"/>
      <path class="cls-1" d="M23.31,36.5c2.83,8.96,11.18,11.66,19.53,8.03,2.9,2.82-1.72,4.31-4.13,4.74-7.96,1.42-14.49-2.49-17.63-9.78-.31-.73-.69-2.84-.8-2.94-.55-.48-4.45.58-5.19-.52-2.51-3.72,4-2.79,4.25-3.03.11-.11.11-2.9,0-3.01-.5-.5-5.7,1.22-4.4-2.67.57-1.71,4.69-.3,5.34-.87.13-.11.59-2.48.95-3.29,2.99-6.7,8.83-10.32,16.2-9.65,1.48.13,6.13,1.26,6.25,2.74.34,4.05-3.68.97-6.23.74-7.11-.65-11.89,2.89-14.16,9.52h11.16c1.44,0,1.44,3.5,0,3.5h-11.66v3h11.66c1.44,0,1.44,3.5,0,3.5h-11.16Z"/>
    </g>
  </g>
</svg>