<?xml version="1.0" encoding="UTF-8"?>
<svg id="Livello_2" data-name="Livello 2" xmlns="http://www.w3.org/2000/svg" viewBox="0 0 35.83 33.04">
  <defs>
    <style>
      .cls-1 {
        fill: #a2a2a2;
      }
    </style>
  </defs>
  <g id="Livello_1-2" data-name="Livello 1">
    <path class="cls-1" d="M31.41,16.04v16.25c0,.05-.7.75-.75.75h-10.5c-1.48,0-.21-6.89-1.04-7.01h-2.72c-.14,1.18.51,7.01-.75,7.01H5.16c-.05,0-.75-.7-.75-.75v-16.25c-1.91,2.27-5.61,3.33-4.03-.79C3.29,13.7,15.9.19,17.69.01c.58-.06,1.08.1,1.5.5l16.26,14.74c1.57,4.12-2.12,3.06-4.03.79ZM28.41,30.04V13.29c0-.72-9.39-8.52-10.68-9.71-1.04,1.53-10.32,9.01-10.32,9.71v16.75h6c.24-1.42-.54-6.08.47-6.78h8.06c1.01.7.23,5.34.47,6.78h6Z"/>
  </g>
</svg>