<?xml version="1.0" encoding="UTF-8"?>
<svg id="Livello_2" data-name="Livello 2" xmlns="http://www.w3.org/2000/svg" viewBox="0 0 38.89 38.89">
  <defs>
    <style>
      .cls-1 {
        fill: #575756;
      }
    </style>
  </defs>
  <g id="Livello_1-2" data-name="Livello 1">
    <g>
      <path class="cls-1" d="M19.44,38.89C8.72,38.89,0,30.17,0,19.44S8.72,0,19.44,0s19.45,8.72,19.45,19.44-8.72,19.44-19.45,19.44ZM19.44,3C10.38,3,3,10.38,3,19.44s7.38,16.44,16.44,16.44,16.45-7.38,16.45-16.44S28.51,3,19.44,3Z"/>
      <path class="cls-1" d="M20.86,25.4c.23.22,3.9-.73,2.94,2.2-.32.98-9.2,2.01-8.92-.95.19-2.04,2.9-.8,3.02-1.54.11-.65.2-5.52-.01-5.72-.22-.21-2.5.52-2.94-.8-1.14-3.4,5.91-2.36,5.91-1.45,0,1.18-.3,7.97,0,8.25Z"/>
      <path class="cls-1" d="M18.68,10.45c2.15-.69,2.93,1.87,1.71,2.73-2.16,1.52-3.62-2.12-1.71-2.73Z"/>
    </g>
  </g>
</svg>