<?xml version="1.0" encoding="UTF-8"?>
<svg id="Livello_2" data-name="Livello 2" xmlns="http://www.w3.org/2000/svg" viewBox="0 0 33.1 30.2">
  <defs>
    <style>
      .cls-1 {
        fill: #a2a2a2;
      }
    </style>
  </defs>
  <g id="Livello_1-2" data-name="Livello 1">
    <g>
      <path class="cls-1" d="M15.87,3.1c.67-.22,1.46-.14,1.93.44l15.25,24.78-.49,1.5c-3.73-.12-31.37,1.07-32.31-.24-.42-.58-.28-1.41.05-2.02C2.75,24.98,14.49,3.55,15.87,3.1ZM20.05,13.54c-.61-.96-2.68-5.75-3.74-5.49-.5.12-2.78,4.64-3.26,5.49,3.19,1.55,3.81,1.55,7,0ZM4.55,27.04h24l-6.55-10.97c-1-.69-4.76,3.58-5.63,3.43-.81-.14-3.7-3.59-5.04-3.49l-6.78,11.03Z"/>
      <path class="cls-1" d="M26.4.15c5.61-1.27,9.33,5.93,4.39,9.4C23.74,14.5,18.84,1.86,26.4.15ZM26.9,3.13c-2,.59-1.89,4.11.43,4.43,3.96.55,3.55-5.6-.43-4.43Z"/>
    </g>
  </g>
</svg>