<?xml version="1.0" encoding="UTF-8"?>
<svg id="Livello_2" data-name="Livello 2" xmlns="http://www.w3.org/2000/svg" viewBox="0 0 44 44">
  <defs>
    <style>
      .cls-1 {
        fill: #fefefe;
      }

      .cls-2 {
        fill: #a2a2a2;
      }
    </style>
  </defs>
  <g id="Livello_1-2" data-name="Livello 1">
    <g>
      <rect class="cls-1" width="44" height="44"/>
      <path class="cls-2" d="M4.75,7.5h34.5c.05,0,.75.7.75.75v9c0,.92-4.29.37-4.49,3.54-.22,3.58,4.49,3.04,4.49,3.96v9c0,.05-.7.75-.75.75H4.75c-.05,0-.75-.7-.75-.75v-9c0-.92,4.29-.37,4.49-3.54.22-3.58-4.49-3.04-4.49-3.96v-9c0-.14.59-.5.75-.75Z"/>
      <path class="cls-1" d="M37,10.5c-.25,1.31.34,3.59.03,4.69-.14.48-1.25.35-1.78.79-3.72,3.05-3.73,6.98,0,10.04.54.44,1.65.31,1.78.79.31,1.1-.28,3.38-.03,4.69H7c.25-1.31-.34-3.59-.03-4.69.14-.48,1.25-.35,1.78-.79,3.72-3.05,3.73-6.98,0-10.04-.54-.44-1.65-.31-1.78-.79-.31-1.1.28-3.38.03-4.69h30Z"/>
      <path class="cls-2" d="M15.25,16.5h13.5c.99,0,.99,3,0,3h-13.5c-.82,0-1.2-2.51,0-3Z"/>
      <path class="cls-2" d="M15.25,22.5h13.5c.99,0,.99,3,0,3h-13.5c-.82,0-1.2-2.51,0-3Z"/>
    </g>
  </g>
</svg>